HIERARCHY
ROOT root
{
	OFFSET	0	13.1	24.9
	CHANNELS 6  Xposition Yposition Zposition Xrotation Yrotation Zrotation
	JOINT spine_1
	{
		OFFSET	0	9.99999	0
		CHANNELS 3  Xrotation Yrotation Zrotation
		JOINT spine_2
		{
			OFFSET	0	112	-10
			CHANNELS 3  Xrotation Yrotation Zrotation
			JOINT spine_3
			{
				OFFSET	0	206.5	19.3
				CHANNELS 3  Xrotation Yrotation Zrotation
				JOINT spine_4
				{
					OFFSET	0	110.4	14.6
					CHANNELS 3  Xrotation Yrotation Zrotation
					JOINT neck_1
					{
						OFFSET	0	71.8	-50.3
						CHANNELS 3  Xrotation Yrotation Zrotation
						JOINT neck_2
						{
							OFFSET	0	86.2	-25.8
							CHANNELS 3  Xrotation Yrotation Zrotation
							JOINT head_ee
							{
								OFFSET	0	179.8	-8.7
								CHANNELS 3  Xrotation Yrotation Zrotation
								End Site
								{
									OFFSET	1	0	0
								}
							}
						}
					}
					JOINT left_clavicle
					{
						OFFSET	-43.2	22.4	-70.8
						CHANNELS 3  Xrotation Yrotation Zrotation
						JOINT left_shoulder
						{
							OFFSET	-93.9	-5.79999	48.7
							CHANNELS 3  Xrotation Yrotation Zrotation
							JOINT left_elbow
							{
								OFFSET	-291.4	-30.8	15.2
								CHANNELS 3  Xrotation Yrotation Zrotation
								JOINT left_lowarm_twist
								{
									OFFSET	-110.7	-3.89999	13.6
									CHANNELS 3  Xrotation Yrotation Zrotation
									JOINT left_hand
									{
										OFFSET	-110.7	-3.89999	13.6
										CHANNELS 3  Xrotation Yrotation Zrotation
										JOINT left_ee
										{
											OFFSET	-80.8	-5.10001	12.1
											CHANNELS 3  Xrotation Yrotation Zrotation
											End Site
											{
												OFFSET	1	0	0
											}
										}
									}
								}
							}
						}
					}
					JOINT right_clavicle
					{
						OFFSET	43.2	22.4	-70.8
						CHANNELS 3  Xrotation Yrotation Zrotation
						JOINT right_shoulder
						{
							OFFSET	93.9	-5.79999	48.7
							CHANNELS 3  Xrotation Yrotation Zrotation
							JOINT right_elbow
							{
								OFFSET	291.4	-30.8	15.2
								CHANNELS 3  Xrotation Yrotation Zrotation
								JOINT right_lowarm_twist
								{
									OFFSET	110.7	-3.89999	13.6
									CHANNELS 3  Xrotation Yrotation Zrotation
									JOINT right_hand
									{
										OFFSET	110.7	-3.89999	13.6
										CHANNELS 3  Xrotation Yrotation Zrotation
										JOINT right_ee
										{
											OFFSET	80.8	-5.10001	12.1
											CHANNELS 3  Xrotation Yrotation Zrotation
											End Site
											{
												OFFSET	1	0	0
											}
										}
									}
								}
							}
						}
					}
				}
			}
		}
	}
	JOINT left_hip
	{
		OFFSET	-82.8	-127.5	0.300001
		CHANNELS 3  Xrotation Yrotation Zrotation
		JOINT left_knee
		{
			OFFSET	-28.2	-396.7	2.2
			CHANNELS 3  Xrotation Yrotation Zrotation
			JOINT left_ankle
			{
				OFFSET	-11.7	-411.3	35.4
				CHANNELS 3  Xrotation Yrotation Zrotation
				JOINT left_toes
				{
					OFFSET	0	-60	-88.6
					CHANNELS 3  Xrotation Yrotation Zrotation
					JOINT left_foot_ee
					{
						OFFSET	-22.5	-16.5	-42.2
						CHANNELS 3  Xrotation Yrotation Zrotation
						End Site
						{
							OFFSET	1	0	0
						}
					}
				}
			}
		}
	}
	JOINT right_hip
	{
		OFFSET	82.8	-127.5	0.300001
		CHANNELS 3  Xrotation Yrotation Zrotation
		JOINT right_knee
		{
			OFFSET	28.2	-396.7	2.2
			CHANNELS 3  Xrotation Yrotation Zrotation
			JOINT right_ankle
			{
				OFFSET	11.7	-411.3	35.4
				CHANNELS 3  Xrotation Yrotation Zrotation
				JOINT right_toes
				{
					OFFSET	0	-60	-88.6
					CHANNELS 3  Xrotation Yrotation Zrotation
					JOINT right_foot_ee
					{
						OFFSET	22.5	-16.5	-42.2
						CHANNELS 3  Xrotation Yrotation Zrotation
						End Site
						{
							OFFSET	1	0	0
						}
					}
				}
			}
		}
	}
}
MOTION
Frames: 9
Frame Time: 0.02
3177.02 653.055 -1669.29 -13.5557330686 4.84357611192 4.30167881412 3.67144 -0.269668 -0.803044 3.67177 -0.218024 -0.818575 3.67473 -0.0952682 -0.841737 3.67381 -0.227005 -0.81613 1.53652 5.33753 0.407848 1.60496 9.0673 0.90994 -0.0 0.0 -0.0 4.62816 22.962 9.10538 -24.5019 -13.9297 65.8014 0.235406 -6.65156 0.0136797 24.499 0.203377 -3.09917 -0.43135 4.36259 -1.01285 -0.0 0.0 -0.0 12.3859 25.7934 -24.2873 -5.01525 9.13622 -53.8801 1.88542 43.0405 -0.743512 37.8058 0.240081 4.73698 3.66641 12.4275 -19.7778 0.0 0.0 0.0 47.9404 7.62222 -9.09152 -12.7364 0.311457 1.92575 27.5802 -20.384 -4.05654 22.7845 -0.0 -0.0 -0.0 0.0 -0.0 4.32573 -4.54118 3.04123 -20.7493 -0.285979 -3.15392 37.6724 -1.25956 4.66177 28.8967 -0.0 -0.0 0.0 0.0 0.0 
3161.57101798 650.886 -1692.32407648 -13.2518205188 4.13604821768 4.55651012563 3.75983 -0.214691 -0.861794 3.76023 -0.15942 -0.873707 3.76246 -0.0305457 -0.887606 3.7614 -0.170338 -0.871644 1.67773 5.83645 0.0886472 1.7685 10.2033 0.592286 -0.0 0.0 -0.0 4.86352 23.1976 9.43038 -23.4879 -14.0644 65.6453 0.241639 -6.82603 0.0144111 24.7033 0.199476 -3.12497 -0.608807 4.62851 -2.06655 -0.0 0.0 -0.0 12.3503 25.8938 -24.1943 -7.98139 8.65486 -53.9302 1.93859 43.8357 -0.780071 37.3583 0.219041 4.68379 3.69008 12.0038 -20.1523 0.0 0.0 0.0 47.1058 8.38299 -7.90378 -14.3256 0.320066 2.16942 28.8509 -19.5359 -4.17789 23.7553 -0.0 -0.0 -0.0 0.0 -0.0 3.19625 -2.35727 2.80839 -22.5991 -0.255721 -3.43614 37.0774 -0.858817 4.60958 28.6167 -0.0 -0.0 0.0 0.0 0.0 
3161.35375425 650.886 -1692.17686237 -13.2613865634 4.66375944346 4.68120080923 3.75983 -0.214691 -0.861794 3.76023 -0.15942 -0.873707 3.76246 -0.0305457 -0.887606 3.7614 -0.170338 -0.871644 1.67773 5.83645 0.0886472 1.7685 10.2033 0.592286 -0.0 0.0 -0.0 4.86352 23.1976 9.43038 -23.4879 -14.0644 65.6453 0.241639 -6.82603 0.0144111 24.7033 0.199476 -3.12497 -0.608807 4.62851 -2.06655 -0.0 0.0 -0.0 12.3503 25.8938 -24.1943 -7.98139 8.65486 -53.9302 1.93859 43.8357 -0.780071 37.3583 0.219041 4.68379 3.69008 12.0038 -20.1523 0.0 0.0 0.0 47.1058 8.38299 -7.90378 -14.3256 0.320066 2.16942 28.8509 -19.5359 -4.17789 23.7553 -0.0 -0.0 -0.0 0.0 -0.0 3.19625 -2.35727 2.80839 -22.5991 -0.255721 -3.43614 37.0774 -0.858817 4.60958 28.6167 -0.0 -0.0 0.0 0.0 0.0 
3161.1622544 650.886 -1692.04459579 -13.2708408361 5.13172343902 4.79193460389 3.75983 -0.214691 -0.861794 3.76023 -0.15942 -0.873707 3.76246 -0.0305457 -0.887606 3.7614 -0.170338 -0.871644 1.67773 5.83645 0.0886472 1.7685 10.2033 0.592286 -0.0 0.0 -0.0 4.86352 23.1976 9.43038 -23.4879 -14.0644 65.6453 0.241639 -6.82603 0.0144111 24.7033 0.199476 -3.12497 -0.608807 4.62851 -2.06655 -0.0 0.0 -0.0 12.3503 25.8938 -24.1943 -7.98139 8.65486 -53.9302 1.93859 43.8357 -0.780071 37.3583 0.219041 4.68379 3.69008 12.0038 -20.1523 0.0 0.0 0.0 47.1058 8.38299 -7.90378 -14.3256 0.320066 2.16942 28.8509 -19.5359 -4.17789 23.7553 -0.0 -0.0 -0.0 0.0 -0.0 3.19625 -2.35727 2.80839 -22.5991 -0.255721 -3.43614 37.0774 -0.858817 4.60958 28.6167 -0.0 -0.0 0.0 0.0 0.0 
3137.20969619 649.343 -1747.17894668 -12.6387828333 5.79628258734 4.38440058182 3.76453 -0.462308 -0.837147 3.76483 -0.408104 -0.864865 3.77085 -0.278034 -0.915004 3.76993 -0.419047 -0.859616 0.752494 4.96842 0.403236 0.806977 8.4741 0.915933 -0.0 0.0 -0.0 5.2626 20.9452 10.0846 -18.6152 -13.9718 65.1104 0.303409 -8.54777 0.0226744 24.909 0.195454 -3.15094 -0.677349 6.2473 -1.81641 -0.0 0.0 -0.0 12.0793 24.92 -23.6805 -13.3663 7.33898 -54.4169 1.85802 42.6224 -0.724883 35.4506 0.134021 4.45519 3.45693 11.0901 -18.9269 0.0 0.0 0.0 42.8502 10.5138 -5.20284 -13.6535 0.31725 2.06635 28.0338 -17.0562 -4.00162 26.106 -0.0 -0.0 -0.0 0.0 -0.0 1.92179 2.84871 2.28228 -25.5125 -0.189628 -3.87831 26.7086 4.24434 3.58859 28.2292 -0.0 -0.0 0.0 0.0 0.0 
3119.23381373 653.642 -1802.55869513 -10.8413996037 4.92872026127 3.91313247355 3.62543 -0.512323 -0.727669 3.6256 -0.464983 -0.758793 3.6317 -0.347744 -0.819174 3.63108 -0.47275 -0.753979 0.148532 4.64975 0.936808 0.18716 7.50978 1.49211 -0.0 0.0 -0.0 6.16352 19.0793 11.5326 -14.7437 -14.3789 65.3043 0.370981 -10.4135 0.0338059 25.1854 0.189904 -3.18581 -0.648397 7.03095 -1.28919 -0.0 0.0 -0.0 11.7916 22.6044 -23.2481 -18.642 5.76751 -56.1329 1.60603 38.5021 -0.560915 34.2793 0.0856134 4.3135 3.09639 10.1611 -16.8091 0.0 0.0 0.0 39.2918 11.7916 -4.06205 -16.2219 0.321491 2.46036 25.7517 -15.5361 -3.68729 27.1541 -0.0 -0.0 -0.0 0.0 -0.0 1.96859 6.30178 1.36576 -30.1096 -0.0398531 -4.56773 20.1206 7.14205 2.83251 27.4227 -0.0 -0.0 0.0 0.0 0.0 
3118.5501518 653.642 -1802.26016687 -10.8463141791 5.21771944588 3.96870897099 3.62543 -0.512323 -0.727669 3.6256 -0.464983 -0.758793 3.6317 -0.347744 -0.819174 3.63108 -0.47275 -0.753979 0.148532 4.64975 0.936808 0.18716 7.50978 1.49211 -0.0 0.0 -0.0 6.16352 19.0793 11.5326 -14.7437 -14.3789 65.3043 0.370981 -10.4135 0.0338059 25.1854 0.189904 -3.18581 -0.648397 7.03095 -1.28919 -0.0 0.0 -0.0 11.7916 22.6044 -23.2481 -18.642 5.76751 -56.1329 1.60603 38.5021 -0.560915 34.2793 0.0856134 4.3135 3.09639 10.1611 -16.8091 0.0 0.0 0.0 39.2918 11.7916 -4.06205 -16.2219 0.321491 2.46036 25.7517 -15.5361 -3.68729 27.1541 -0.0 -0.0 -0.0 0.0 -0.0 1.96859 6.30178 1.36576 -30.1096 -0.0398531 -4.56773 20.1206 7.14205 2.83251 27.4227 -0.0 -0.0 0.0 0.0 0.0 
3118.37866317 653.642 -1802.18462758 -10.847593276 5.29031291148 3.98267726641 3.62543 -0.512323 -0.727669 3.6256 -0.464983 -0.758793 3.6317 -0.347744 -0.819174 3.63108 -0.47275 -0.753979 0.148532 4.64975 0.936808 0.18716 7.50978 1.49211 -0.0 0.0 -0.0 6.16352 19.0793 11.5326 -14.7437 -14.3789 65.3043 0.370981 -10.4135 0.0338059 25.1854 0.189904 -3.18581 -0.648397 7.03095 -1.28919 -0.0 0.0 -0.0 11.7916 22.6044 -23.2481 -18.642 5.76751 -56.1329 1.60603 38.5021 -0.560915 34.2793 0.0856134 4.3135 3.09639 10.1611 -16.8091 0.0 0.0 0.0 39.2918 11.7916 -4.06205 -16.2219 0.321491 2.46036 25.7517 -15.5361 -3.68729 27.1541 -0.0 -0.0 -0.0 0.0 -0.0 1.96859 6.30178 1.36576 -30.1096 -0.0398531 -4.56773 20.1206 7.14205 2.83251 27.4227 -0.0 -0.0 0.0 0.0 0.0 
3118.22093394 653.642 -1802.11491579 -10.848786227 5.35711806008 3.99553473332 3.62543 -0.512323 -0.727669 3.6256 -0.464983 -0.758793 3.6317 -0.347744 -0.819174 3.63108 -0.47275 -0.753979 0.148532 4.64975 0.936808 0.18716 7.50978 1.49211 -0.0 0.0 -0.0 6.16352 19.0793 11.5326 -14.7437 -14.3789 65.3043 0.370981 -10.4135 0.0338059 25.1854 0.189904 -3.18581 -0.648397 7.03095 -1.28919 -0.0 0.0 -0.0 11.7916 22.6044 -23.2481 -18.642 5.76751 -56.1329 1.60603 38.5021 -0.560915 34.2793 0.0856134 4.3135 3.09639 10.1611 -16.8091 0.0 0.0 0.0 39.2918 11.7916 -4.06205 -16.2219 0.321491 2.46036 25.7517 -15.5361 -3.68729 27.1541 -0.0 -0.0 -0.0 0.0 -0.0 1.96859 6.30178 1.36576 -30.1096 -0.0398531 -4.56773 20.1206 7.14205 2.83251 27.4227 -0.0 -0.0 0.0 0.0 0.0 
